<svg width="48" height="49" viewBox="0 0 48 49" fill="none" xmlns="http://www.w3.org/2000/svg">
<path d="M22.35 39.0663L8.45 25.1663C8.28333 24.9996 8.16667 24.833 8.1 24.6663C8.03333 24.4996 8 24.3163 8 24.1163C8 23.9163 8.03333 23.733 8.1 23.5663C8.16667 23.3996 8.28333 23.233 8.45 23.0663L22.4 9.11629C22.6667 8.84963 23 8.7163 23.4 8.7163C23.8 8.7163 24.15 8.8663 24.45 9.1663C24.75 9.4663 24.9 9.8163 24.9 10.2163C24.9 10.6163 24.75 10.9663 24.45 11.2663L13.1 22.6163H37.9C38.3333 22.6163 38.6917 22.758 38.975 23.0413C39.2583 23.3246 39.4 23.683 39.4 24.1163C39.4 24.5496 39.2583 24.908 38.975 25.1913C38.6917 25.4746 38.3333 25.6163 37.9 25.6163H13.1L24.5 37.0163C24.7667 37.283 24.9 37.6163 24.9 38.0163C24.9 38.4163 24.75 38.7663 24.45 39.0663C24.15 39.3663 23.8 39.5163 23.4 39.5163C23 39.5163 22.65 39.3663 22.35 39.0663Z" fill="currentColor"/>
</svg>
