<svg width="48" height="49" viewBox="0 0 48 49" fill="none" xmlns="http://www.w3.org/2000/svg">
<path d="M24 26.2163L13.5 36.7163C13.2 37.0163 12.85 37.1663 12.45 37.1663C12.05 37.1663 11.7 37.0163 11.4 36.7163C11.1 36.4163 10.95 36.0663 10.95 35.6663C10.95 35.2663 11.1 34.9163 11.4 34.6163L21.9 24.1163L11.4 13.6163C11.1 13.3163 10.95 12.9663 10.95 12.5663C10.95 12.1663 11.1 11.8163 11.4 11.5163C11.7 11.2163 12.05 11.0663 12.45 11.0663C12.85 11.0663 13.2 11.2163 13.5 11.5163L24 22.0163L34.5 11.5163C34.7999 11.2163 35.15 11.0663 35.5499 11.0663C35.9499 11.0663 36.2999 11.2163 36.5999 11.5163C36.8999 11.8163 37.0499 12.1663 37.0499 12.5663C37.0499 12.9663 36.8999 13.3163 36.5999 13.6163L26.1 24.1163L36.5999 34.6163C36.8999 34.9163 37.0499 35.2663 37.0499 35.6663C37.0499 36.0663 36.8999 36.4163 36.5999 36.7163C36.2999 37.0163 35.9499 37.1663 35.5499 37.1663C35.15 37.1663 34.7999 37.0163 34.5 36.7163L24 26.2163Z" fill="currentColor"/>
</svg>
