<svg width="49" height="49" viewBox="0 0 49 49" fill="none" xmlns="http://www.w3.org/2000/svg">
<path d="M29.9471 24.1163C29.9471 27.2722 27.3887 29.8306 24.2328 29.8306C21.0769 29.8306 18.5185 27.2722 18.5185 24.1163C18.5185 20.9604 21.0769 18.402 24.2328 18.402C27.3887 18.402 29.9471 20.9604 29.9471 24.1163Z" fill="currentColor"/>
<path fill-rule="evenodd" clip-rule="evenodd" d="M24.2328 48.1163C36.3235 48.1163 46.3261 39.1756 47.9897 27.5449H33.9332C32.5212 31.5398 28.7112 34.402 24.2328 34.402C19.7543 34.402 15.9444 31.5398 14.5323 27.5449H0.47583C2.13947 39.1756 12.142 48.1163 24.2328 48.1163ZM14.5323 20.6877H0.47583C2.13947 9.057 12.142 0.116295 24.2328 0.116295C36.3235 0.116295 46.3261 9.057 47.9897 20.6877H33.9332C32.5212 16.6928 28.7112 13.8306 24.2328 13.8306C19.7543 13.8306 15.9444 16.6928 14.5323 20.6877ZM29.9471 24.1163C29.9471 27.2722 27.3887 29.8306 24.2328 29.8306C21.0769 29.8306 18.5185 27.2722 18.5185 24.1163C18.5185 20.9604 21.0769 18.402 24.2328 18.402C27.3887 18.402 29.9471 20.9604 29.9471 24.1163Z" fill="currentColor"/>
</svg>
