<svg width="49" height="49" viewBox="0 0 49 49" fill="none" xmlns="http://www.w3.org/2000/svg">
<path d="M12.0339 7.17479C12.03 6.3748 12.3266 5.67335 12.9237 5.07044C13.5208 4.46754 14.2193 4.16414 15.0193 4.16025L33.0191 4.07282C33.7857 4.06909 34.4789 4.36573 35.0984 4.96273C35.718 5.55972 36.0297 6.25822 36.0336 7.05821L36.1988 41.0578C36.2027 41.8578 35.8977 42.5593 35.284 43.1623C34.6702 43.7653 33.98 44.0686 33.2134 44.0723L15.2136 44.1598C14.4136 44.1637 13.7122 43.8671 13.1092 43.27C12.5063 42.6729 12.2029 41.9744 12.1991 41.1744L12.0339 7.17479ZM15.0339 7.16022L15.199 41.1598L33.1988 41.0724L33.1672 34.5725L24.1673 34.6162L24.1528 31.6162L33.1527 31.5725L33.1235 25.5726L24.1236 25.6163L24.109 22.6163L33.1089 22.5726L33.0798 16.5727L24.0799 16.6164L24.0653 13.6164L33.0652 13.5727L33.0337 7.07278L15.0339 7.16022ZM24.0653 13.6164L24.0799 16.6164L24.0653 13.6164ZM24.109 22.6163L24.1236 25.6163L24.109 22.6163ZM24.1528 31.6162L24.1673 34.6162L24.1528 31.6162Z" fill="currentColor"/>
</svg>
