<svg width="48" height="49" viewBox="0 0 48 49" fill="none" xmlns="http://www.w3.org/2000/svg">
<path d="M38.7 40.9663L26.65 28.9163C25.65 29.783 24.4833 30.458 23.15 30.9413C21.8167 31.4246 20.4 31.6663 18.9 31.6663C15.3 31.6663 12.25 30.4163 9.75 27.9163C7.25 25.4163 6 22.3996 6 18.8663C6 15.333 7.25 12.3163 9.75 9.81629C12.25 7.31629 15.2833 6.06629 18.85 6.06629C22.3833 6.06629 25.3917 7.31629 27.875 9.81629C30.3583 12.3163 31.6 15.333 31.6 18.8663C31.6 20.2996 31.3667 21.683 30.9 23.0163C30.4333 24.3496 29.7333 25.5996 28.8 26.7663L40.95 38.8163C41.25 39.083 41.4 39.4246 41.4 39.8413C41.4 40.258 41.2333 40.633 40.9 40.9663C40.6 41.2663 40.2333 41.4163 39.8 41.4163C39.3667 41.4163 39 41.2663 38.7 40.9663ZM18.85 28.6663C21.55 28.6663 23.85 27.708 25.75 25.7913C27.65 23.8746 28.6 21.5663 28.6 18.8663C28.6 16.1663 27.65 13.858 25.75 11.9413C23.85 10.0246 21.55 9.06629 18.85 9.06629C16.1167 9.06629 13.7917 10.0246 11.875 11.9413C9.95833 13.858 9 16.1663 9 18.8663C9 21.5663 9.95833 23.8746 11.875 25.7913C13.7917 27.708 16.1167 28.6663 18.85 28.6663Z" fill="currentColor"/>
</svg>
