<svg width="49" height="49" viewBox="0 0 49 49" fill="none" xmlns="http://www.w3.org/2000/svg">
<path d="M11.0827 39.1163H37.3827L34.2327 17.1163H14.2327L11.0827 39.1163ZM24.2327 14.1163C25.0993 14.1163 25.816 13.8246 26.3827 13.2413C26.9493 12.658 27.2327 11.9496 27.2327 11.1163C27.2327 10.2496 26.9493 9.53296 26.3827 8.9663C25.816 8.39963 25.0993 8.11629 24.2327 8.11629C23.3993 8.11629 22.691 8.39963 22.1077 8.9663C21.5243 9.53296 21.2327 10.2496 21.2327 11.1163C21.2327 11.9496 21.5243 12.658 22.1077 13.2413C22.691 13.8246 23.3993 14.1163 24.2327 14.1163ZM29.4327 14.1163H34.2327C34.9993 14.1163 35.666 14.358 36.2327 14.8413C36.7993 15.3246 37.1327 15.9496 37.2327 16.7163L40.3327 38.7163C40.466 39.6163 40.241 40.408 39.6577 41.0913C39.0743 41.7746 38.316 42.1163 37.3827 42.1163H11.0827C10.1493 42.1163 9.391 41.7746 8.80767 41.0913C8.22433 40.408 7.99933 39.6163 8.13267 38.7163L11.2327 16.7163C11.3327 15.9496 11.666 15.3246 12.2327 14.8413C12.7993 14.358 13.466 14.1163 14.2327 14.1163H19.0327C18.766 13.6496 18.566 13.1746 18.4327 12.6913C18.2993 12.208 18.2327 11.683 18.2327 11.1163C18.2327 9.44963 18.816 8.03296 19.9827 6.86629C21.1493 5.69963 22.566 5.11629 24.2327 5.11629C25.8993 5.11629 27.316 5.69963 28.4827 6.86629C29.6493 8.03296 30.2327 9.44963 30.2327 11.1163C30.2327 11.683 30.166 12.208 30.0327 12.6913C29.8993 13.1746 29.6993 13.6496 29.4327 14.1163ZM11.0827 39.1163H37.3827H11.0827Z" fill="currentColor"/>
</svg>
